<?xml version="1.0" standalone="no"?><!DOCTYPE svg PUBLIC "-//W3C//DTD SVG 1.1//EN" "http://www.w3.org/Graphics/SVG/1.1/DTD/svg11.dtd"><svg t="1663751878885" class="icon" viewBox="0 0 1024 1024" version="1.1" xmlns="http://www.w3.org/2000/svg" p-id="4835" width="64" height="64" xmlns:xlink="http://www.w3.org/1999/xlink"><path d="M1018.432 495.104C966.464 424.96 754.048 160 512.064 160S57.6 424.96 5.632 495.104a28.032 28.032 0 0 0 0 33.792C57.664 599.04 270.08 864 512.064 864s454.4-264.96 506.368-335.104a28.032 28.032 0 0 0 0-33.792zM512.064 800c-207.808 0-388.16-218.304-439.104-286.08a3.008 3.008 0 0 1 0-3.904C123.84 442.24 303.872 224 512 224c207.808 0 388.224 218.304 439.168 286.08a3.008 3.008 0 0 1 0 3.904C900.288 581.76 720.192 800 512 800z" fill="#999999" p-id="4836"></path><path d="M512 352A160 160 0 1 0 672 512 160.192 160.192 0 0 0 512 352z m0 256A96 96 0 1 1 608 512 96.128 96.128 0 0 1 512 608z" fill="#999999" p-id="4837"></path></svg>